name Walk5.mot
datacolumns 19
datarows 25
range 3.13600000 3.16000000
endheader

                time	   L_ground_force_vx	   L_ground_force_vy	   L_ground_force_vz	   L_ground_force_px	   L_ground_force_py	   L_ground_force_pz	   R_ground_force_vx	   R_ground_force_vy	   R_ground_force_vz	   R_ground_force_px	   R_ground_force_py	   R_ground_force_pz	   L_ground_torque_x	   L_ground_torque_y	   L_ground_torque_z	   R_ground_torque_x	   R_ground_torque_y	   R_ground_torque_z	
          3.13600000	          0.00000000	          0.00000000	          0.00000000	          0.00000000	          0.00000000	          0.00000000	         -2.71415964	        964.55364335	        -57.79060906	          0.31424437	          0.00000000	          0.13524839	          0.00000000	          0.00000000	          0.00000000	          0.00000000	          4.24089923	          0.00000000	
          3.13700000	          0.00000000	          0.00000000	          0.00000000	          0.00000000	          0.00000000	          0.00000000	         -2.33857682	        963.61905698	        -57.91288661	          0.31450001	          0.00000000	          0.13524635	          0.00000000	          0.00000000	          0.00000000	          0.00000000	          4.16438373	          0.00000000	
          3.13800000	          0.00000000	          0.00000000	          0.00000000	          0.00000000	          0.00000000	          0.00000000	         -1.95424373	        962.65459778	        -58.02673931	          0.31474814	          0.00000000	          0.13524363	          0.00000000	          0.00000000	          0.00000000	          0.00000000	          4.08362890	          0.00000000	
          3.13900000	          0.00000000	          0.00000000	          0.00000000	          0.00000000	          0.00000000	          0.00000000	         -1.57214650	        961.63246983	        -58.14094549	          0.31497682	          0.00000000	          0.13523577	          0.00000000	          0.00000000	          0.00000000	          0.00000000	          4.00606677	          0.00000000	
          3.14000000	          0.00000000	          0.00000000	          0.00000000	          0.00000000	          0.00000000	          0.00000000	         -1.19622608	        960.56140214	        -58.26559507	          0.31518707	          0.00000000	          0.13521528	          0.00000000	          0.00000000	          0.00000000	          0.00000000	          3.93559160	          0.00000000	
          3.14100000	          0.00000000	          0.00000000	          0.00000000	          0.00000000	          0.00000000	          0.00000000	         -0.82826040	        959.46483761	        -58.40568353	          0.31538129	          0.00000000	          0.13518173	          0.00000000	          0.00000000	          0.00000000	          0.00000000	          3.87251733	          0.00000000	
          3.14200000	          0.00000000	          0.00000000	          0.00000000	          0.00000000	          0.00000000	          0.00000000	         -0.47230481	        958.38301620	        -58.55148524	          0.31555304	          0.00000000	          0.13514858	          0.00000000	          0.00000000	          0.00000000	          0.00000000	          3.81303732	          0.00000000	
          3.14300000	          0.00000000	          0.00000000	          0.00000000	          0.00000000	          0.00000000	          0.00000000	         -0.13021614	        957.36499604	        -58.68578392	          0.31569520	          0.00000000	          0.13513792	          0.00000000	          0.00000000	          0.00000000	          0.00000000	          3.75142409	          0.00000000	
          3.14400000	          0.00000000	          0.00000000	          0.00000000	          0.00000000	          0.00000000	          0.00000000	          0.20429063	        956.42417818	        -58.79761174	          0.31581463	          0.00000000	          0.13516254	          0.00000000	          0.00000000	          0.00000000	          0.00000000	          3.68629285	          0.00000000	
          3.14500000	          0.00000000	          0.00000000	          0.00000000	          0.00000000	          0.00000000	          0.00000000	          0.54508639	        955.52232905	        -58.88238334	          0.31592963	          0.00000000	          0.13521672	          0.00000000	          0.00000000	          0.00000000	          0.00000000	          3.62239749	          0.00000000	
          3.14600000	          0.00000000	          0.00000000	          0.00000000	          0.00000000	          0.00000000	          0.00000000	          0.90368510	        954.60990473	        -58.94314487	          0.31606343	          0.00000000	          0.13528514	          0.00000000	          0.00000000	          0.00000000	          0.00000000	          3.56400658	          0.00000000	
          3.14700000	          0.00000000	          0.00000000	          0.00000000	          0.00000000	          0.00000000	          0.00000000	          1.27748559	        953.65091349	        -58.99637879	          0.31623571	          0.00000000	          0.13535212	          0.00000000	          0.00000000	          0.00000000	          0.00000000	          3.50963801	          0.00000000	
          3.14800000	          0.00000000	          0.00000000	          0.00000000	          0.00000000	          0.00000000	          0.00000000	          1.65440016	        952.60835898	        -59.06120517	          0.31644374	          0.00000000	          0.13540425	          0.00000000	          0.00000000	          0.00000000	          0.00000000	          3.45477140	          0.00000000	
          3.14900000	          0.00000000	          0.00000000	          0.00000000	          0.00000000	          0.00000000	          0.00000000	          2.02843615	        951.46325554	        -59.14236548	          0.31666431	          0.00000000	          0.13543433	          0.00000000	          0.00000000	          0.00000000	          0.00000000	          3.39692922	          0.00000000	
          3.15000000	          0.00000000	          0.00000000	          0.00000000	          0.00000000	          0.00000000	          0.00000000	          2.40185040	        950.25724789	        -59.23025486	          0.31687509	          0.00000000	          0.13544283	          0.00000000	          0.00000000	          0.00000000	          0.00000000	          3.33729529	          0.00000000	
          3.15100000	          0.00000000	          0.00000000	          0.00000000	          0.00000000	          0.00000000	          0.00000000	          2.77428663	        949.06779402	        -59.31442120	          0.31706402	          0.00000000	          0.13543201	          0.00000000	          0.00000000	          0.00000000	          0.00000000	          3.27851022	          0.00000000	
          3.15200000	          0.00000000	          0.00000000	          0.00000000	          0.00000000	          0.00000000	          0.00000000	          3.13590927	        947.94474615	        -59.39229568	          0.31722597	          0.00000000	          0.13540244	          0.00000000	          0.00000000	          0.00000000	          0.00000000	          3.22009801	          0.00000000	
          3.15300000	          0.00000000	          0.00000000	          0.00000000	          0.00000000	          0.00000000	          0.00000000	          3.47205780	        946.90047893	        -59.46600136	          0.31735799	          0.00000000	          0.13536122	          0.00000000	          0.00000000	          0.00000000	          0.00000000	          3.15757720	          0.00000000	
          3.15400000	          0.00000000	          0.00000000	          0.00000000	          0.00000000	          0.00000000	          0.00000000	          3.77708946	        945.93779786	        -59.53711551	          0.31746312	          0.00000000	          0.13532693	          0.00000000	          0.00000000	          0.00000000	          0.00000000	          3.08933937	          0.00000000	
          3.15500000	          0.00000000	          0.00000000	          0.00000000	          0.00000000	          0.00000000	          0.00000000	          4.06140727	        945.06828355	        -59.60541472	          0.31755955	          0.00000000	          0.13531985	          0.00000000	          0.00000000	          0.00000000	          0.00000000	          3.02136802	          0.00000000	
          3.15600000	          0.00000000	          0.00000000	          0.00000000	          0.00000000	          0.00000000	          0.00000000	          4.34245098	        944.30588975	        -59.66732194	          0.31767720	          0.00000000	          0.13535052	          0.00000000	          0.00000000	          0.00000000	          0.00000000	          2.96222569	          0.00000000	
          3.15700000	          0.00000000	          0.00000000	          0.00000000	          0.00000000	          0.00000000	          0.00000000	          4.63415008	        943.62647047	        -59.71651694	          0.31783402	          0.00000000	          0.13541348	          0.00000000	          0.00000000	          0.00000000	          0.00000000	          2.91658524	          0.00000000	
          3.15800000	          0.00000000	          0.00000000	          0.00000000	          0.00000000	          0.00000000	          0.00000000	          4.94320545	        942.95011548	        -59.75140059	          0.31801838	          0.00000000	          0.13548696	          0.00000000	          0.00000000	          0.00000000	          0.00000000	          2.88274837	          0.00000000	
          3.15900000	          0.00000000	          0.00000000	          0.00000000	          0.00000000	          0.00000000	          0.00000000	          5.27007089	        942.19307361	        -59.77798598	          0.31820686	          0.00000000	          0.13554458	          0.00000000	          0.00000000	          0.00000000	          0.00000000	          2.85354599	          0.00000000	
          3.16000000	          0.00000000	          0.00000000	          0.00000000	          0.00000000	          0.00000000	          0.00000000	          5.61473723	        941.32644960	        -59.80047358	          0.31839434	          0.00000000	          0.13557296	          0.00000000	          0.00000000	          0.00000000	          0.00000000	          2.82176587	          0.00000000	
